<!DOCTYPE svg PUBLIC "-//W3C//DTD SVG 20010904//EN" "http://www.w3.org/TR/2001/REC-SVG-20010904/DTD/svg10.dtd">
<svg version="1.0" xmlns="http://www.w3.org/2000/svg" width="286px" height="287px" viewBox="0 0 2860 2870" preserveAspectRatio="xMidYMid meet">
<g id="layer101" fill="#e61b23" stroke="none">
 <path d="M0 2092 l0 -779 423 -221 422 -220 5 571 5 572 568 3 c312 1 567 4 567 6 0 2 -90 192 -199 423 l-200 418 -795 3 -796 2 0 -778z"/>
 <path d="M2433 2438 l-423 -423 0 -578 0 -577 -578 0 -578 0 -424 -427 -425 -428 1424 -3 c783 -1 1426 -1 1428 1 2 2 2 646 1 1430 l-3 1427 -422 -422z"/>
 </g>

</svg>