<?xml version="1.0"?>
<svg xmlns="http://www.w3.org/2000/svg" id="Layer_3" enable-background="new 0 0 64 64" height="512px" viewBox="0 0 64 64" width="512px"><g><g><path d="m31.042 30.129c.203-2.518 1.273-4.858 3.079-6.664l.21-.211c-.751-.163-1.53-.254-2.331-.254-1.412 0-2.758.277-4 .764v1.236c0 2.053.713 3.994 2.016 5.548.318-.184.66-.328 1.026-.419z" data-original="#000000" class="active-path" data-old_color="#000000" fill="#3C90EF"/><circle cx="32" cy="34" r="2" data-original="#000000" class="active-path" data-old_color="#000000" fill="#3C90EF"/><path d="m34.055 30.586c1.933-1.668 4.367-2.586 6.945-2.586h.208c-1.155-1.766-2.802-3.179-4.747-4.046l-.925.925c-1.434 1.434-2.303 3.283-2.495 5.276.361.098.701.242 1.014.431z" data-original="#000000" class="active-path" data-old_color="#000000" fill="#3C90EF"/><path d="m28.155 32.959c.098-.361.242-.701.431-1.014-1.668-1.932-2.586-4.366-2.586-6.945v-.208c-1.766 1.155-3.179 2.802-4.046 4.747l.925.925c1.434 1.435 3.283 2.303 5.276 2.495z" data-original="#000000" class="active-path" data-old_color="#000000" fill="#3C90EF"/><path d="m28.548 35.985c-.184-.319-.328-.661-.419-1.027-2.517-.203-4.858-1.273-6.664-3.079l-.21-.21c-.164.752-.255 1.531-.255 2.331 0 1.412.277 2.758.764 4h1.236c2.052 0 3.994-.713 5.548-2.015z" data-original="#000000" class="active-path" data-old_color="#000000" fill="#3C90EF"/><path d="m29.945 37.414c-1.933 1.668-4.367 2.586-6.945 2.586h-.208c1.155 1.766 2.802 3.179 4.747 4.046l.925-.925c1.434-1.434 2.303-3.283 2.495-5.276-.361-.098-.701-.242-1.014-.431z" data-original="#000000" class="active-path" data-old_color="#000000" fill="#3C90EF"/><path d="m21 51h10v2h-10z" data-original="#000000" class="active-path" data-old_color="#000000" fill="#3C90EF"/><path d="m53 51h2v2h-2z" data-original="#000000" class="active-path" data-old_color="#000000" fill="#3C90EF"/><path d="m21 15h38v2h-38z" data-original="#000000" class="active-path" data-old_color="#000000" fill="#3C90EF"/><path d="m5 31.171c1.164.413 2 1.525 2 2.829s-.836 2.416-2 2.829v2.342c1.164.413 2 1.525 2 2.829s-.836 2.416-2 2.829v14.171h4v-46h-4z" data-original="#000000" class="active-path" data-old_color="#000000" fill="#3C90EF"/><path d="m32.958 37.871c-.203 2.518-1.273 4.858-3.079 6.664l-.21.211c.751.163 1.53.254 2.331.254 1.412 0 2.758-.277 4-.764v-1.236c0-2.053-.713-3.994-2.016-5.548-.318.184-.66.328-1.026.419z" data-original="#000000" class="active-path" data-old_color="#000000" fill="#3C90EF"/><path d="m37 51h10v2h-10z" data-original="#000000" class="active-path" data-old_color="#000000" fill="#3C90EF"/><path d="m3 7h7c.552 0 1 .447 1 1v53h4v-58h-12z" data-original="#000000" class="active-path" data-old_color="#000000" fill="#3C90EF"/><path d="m55 43h2v2h-2z" data-original="#000000" class="active-path" data-old_color="#000000" fill="#3C90EF"/><path d="m35.845 35.041c-.098.361-.242.701-.431 1.014 1.668 1.932 2.586 4.366 2.586 6.945v.208c1.766-1.155 3.179-2.802 4.046-4.747l-.925-.925c-1.434-1.435-3.283-2.303-5.276-2.495z" data-original="#000000" class="active-path" data-old_color="#000000" fill="#3C90EF"/><path d="m17 19v30h44v-30zm15 28c-7.168 0-13-5.832-13-13s5.832-13 13-13 13 5.832 13 13-5.832 13-13 13zm19-1c0 .553-.448 1-1 1h-4c-.552 0-1-.447-1-1v-4c0-.553.448-1 1-1h4c.552 0 1 .447 1 1zm1-9h-2v-2h2zm7 9c0 .553-.448 1-1 1h-4c-.552 0-1-.447-1-1v-4c0-.553.448-1 1-1h4c.552 0 1 .447 1 1zm-5-7v-2h2v2zm5-7c0 .553-.448 1-1 1h-10c-.552 0-1-.447-1-1v-10c0-.553.448-1 1-1h10c.552 0 1 .447 1 1z" data-original="#000000" class="active-path" data-old_color="#000000" fill="#3C90EF"/><path d="m49 23h8v8h-8z" data-original="#000000" class="active-path" data-old_color="#000000" fill="#3C90EF"/><path d="m42.236 30h-1.236c-2.052 0-3.994.713-5.548 2.015.184.319.328.661.419 1.027 2.517.203 4.858 1.273 6.664 3.079l.21.21c.164-.752.255-1.531.255-2.331 0-1.412-.277-2.758-.764-4z" data-original="#000000" class="active-path" data-old_color="#000000" fill="#3C90EF"/><path d="m47 43h2v2h-2z" data-original="#000000" class="active-path" data-old_color="#000000" fill="#3C90EF"/></g></g> </svg>
