<!DOCTYPE svg PUBLIC "-//W3C//DTD SVG 20010904//EN" "http://www.w3.org/TR/2001/REC-SVG-20010904/DTD/svg10.dtd">
<svg version="1.0" xmlns="http://www.w3.org/2000/svg" width="1200px" height="537px" viewBox="0 0 12000 5370" preserveAspectRatio="xMidYMid meet">
<g id="layer101" fill="#f6f4ef" stroke="none">
 <path d="M2456 5350 c-70 -22 -146 -91 -178 -160 -31 -68 -29 -180 5 -246 48 -95 119 -146 228 -164 37 -5 249 -10 502 -10 277 0 454 -4 480 -11 96 -24 173 -106 203 -215 17 -64 17 -70 1 -131 -9 -36 -30 -83 -47 -106 -30 -42 -102 -96 -150 -113 -14 -4 -576 -11 -1250 -14 -1343 -6 -1251 -1 -1342 -66 -24 -17 -58 -56 -78 -89 -33 -55 -35 -65 -35 -145 0 -71 4 -93 25 -133 29 -58 86 -112 149 -141 l46 -21 1560 -5 1560 -5 48 -25 c107 -54 167 -147 167 -260 0 -85 -25 -152 -76 -205 -57 -59 -111 -84 -207 -95 -46 -6 -533 -10 -1113 -10 -1173 0 -1089 6 -1180 -85 -124 -123 -124 -297 0 -420 92 -93 -67 -85 1757 -85 l1608 0 3 283 c3 270 4 284 25 324 96 179 336 217 477 76 80 -79 86 -111 86 -418 l0 -265 249 0 c290 0 344 -10 422 -79 124 -109 133 -303 21 -423 -83 -89 -96 -92 -414 -96 l-278 -3 0 -264 c0 -243 -2 -267 -21 -318 -26 -68 -94 -136 -168 -166 -135 -57 -301 7 -374 142 -21 40 -22 54 -25 325 l-3 282 -1462 -2 -1462 -3 -47 -23 c-93 -47 -145 -116 -167 -222 -27 -132 66 -288 197 -331 27 -9 210 -14 667 -18 l630 -6 49 -25 c69 -35 122 -99 146 -178 11 -35 20 -74 20 -87 0 -13 -9 -52 -20 -87 -24 -79 -77 -143 -146 -178 l-49 -25 -1625 -5 c-1152 -4 -1634 -9 -1656 -16 -127 -47 -214 -163 -214 -289 0 -57 35 -145 77 -194 18 -22 59 -52 91 -68 l57 -28 2695 -3 c1893 -2 2725 0 2795 8 148 16 453 80 806 169 404 101 459 114 664 151 429 77 596 78 1015 5 194 -34 314 -61 710 -160 563 -141 759 -175 1010 -175 387 0 666 115 935 385 181 181 312 373 468 685 292 583 499 1345 626 2305 48 362 62 951 28 1220 -49 399 -167 649 -347 742 -49 25 -67 28 -170 31 -125 4 -214 -12 -355 -65 -332 -123 -817 -457 -1253 -863 -232 -215 -287 -262 -404 -340 -220 -146 -490 -262 -791 -340 -139 -35 -207 -50 -382 -79 -305 -52 -814 -52 -1135 0 -415 66 -760 177 -1035 331 -174 98 -259 162 -431 323 -541 509 -1066 873 -1419 986 -154 50 -137 49 -963 48 -733 0 -780 -1 -836 -19z m7475 -2306 c142 -42 239 -148 270 -296 35 -160 -54 -334 -209 -410 -89 -44 -206 -51 -295 -18 -283 106 -340 487 -99 664 96 70 222 93 333 60z m-546 -619 c76 -37 143 -104 180 -179 53 -109 45 -262 -20 -366 -34 -53 -110 -119 -173 -148 -49 -23 -70 -27 -152 -27 -82 0 -103 4 -152 27 -80 37 -151 107 -191 187 -29 60 -32 74 -32 161 0 78 4 104 23 145 51 110 120 177 224 216 82 30 214 23 293 -16z m1208 0 c71 -35 150 -117 185 -192 23 -49 27 -71 26 -148 0 -123 -26 -189 -108 -271 -82 -82 -147 -108 -271 -109 -81 0 -97 3 -157 32 -81 38 -146 102 -185 180 -39 80 -45 212 -13 296 39 105 111 179 216 223 52 22 71 24 154 21 80 -3 104 -8 153 -32z m-600 -580 c72 -35 150 -117 185 -192 34 -74 38 -199 8 -279 -60 -161 -220 -265 -387 -251 -224 19 -383 220 -348 438 23 141 107 244 247 300 74 30 218 22 295 -16z"/>
 </g>

</svg>