<?xml version="1.0" encoding="utf-8"?>
<svg
    xmlns:dc="http://purl.org/dc/elements/1.1/"
    xmlns:cc="http://creativecommons.org/ns#"
    xmlns:rdf="http://www.w3.org/1999/02/22-rdf-syntax-ns#"
    xmlns:svg="http://www.w3.org/2000/svg"
    xmlns="http://www.w3.org/2000/svg"
    xmlns:xlink="http://www.w3.org/1999/xlink"
    xmlns:sodipodi="http://sodipodi.sourceforge.net/DTD/sodipodi-0.dtd"
    xmlns:inkscape="http://www.inkscape.org/namespaces/inkscape" 
    viewBox="0 0 850.4 850.4"  
    style="enable-background:new 0 0 850.4 850.4;"
    id="SVGlayered" 
    inkscape:version="0.92.3 (2405546, 2018-03-11)"
    xml:space="preserve"
    width="64px"    height="64px">
    <style type="text/css">
    .class_controlPause_n0{fill:#F6F4EF;}
	.class_controlSwitch_n1{fill:#F6F4EF;}
	.class_controlSwitch_n0{fill:#F6F4EF;}
	.class_controlPlay_n0{fill:#F6F4EF;}
	.class_controlRepeat_n0{fill:#F6F4EF;}
	.class_controlShuffle_n0{fill:#F6F4EF;}
    .SVG-layer { display: none }
    .SVG-layer:target { display: inline }
</style>
    <g class="SVG-layer" id="controlPause">
        <path class="class_controlPause_n0" d="M425.2,0C190.7,0,0,190.7,0,425.2s190.7,425.2,425.2,425.2s425.2-190.7,425.2-425.2S659.6,0,425.2,0z
	 M372,584.6H265.7V265.7H372V584.6z M584.6,584.6H478.3V265.7h106.3V584.6z"></path>
    </g>
    <g class="SVG-layer" id="controlSwitch">
        <path class="class_controlSwitch_n0" d="M0,26.6v796.1c0,0,8,47.2,58.8,18.3l727.7-393.1c0,0,10.3-6,11.2-15V417c0,0-2.9-9.2-12-13.2
	c-9.2-4-739-399.5-739-399.5S9.9-14.6,0,26.6z"></path>
        <g>
            <g>
                <g>
                    <path class="class_controlSwitch_n1" d="M798,850.4l-0.6,0c-0.1,0-0.2,0-0.3,0H798z"></path>
                    <path class="class_controlSwitch_n1" d="M796.3,0l-23.2,0.1c-30.3,0-56.6,20.9-56.6,46.5v756.8c0,25.7,25.8,46.7,56.2,46.7l24.6,0.3
				c30.2-0.1,53-21.4,53-46.9V46.5C850.4,20.9,826.7,0,796.3,0z"></path>
                </g>
            </g>
        </g>
    </g>
    <g class="SVG-layer" id="controlPlay">
        <g>
            <g>
                <path class="class_controlPlay_n0" d="M425.2,0C190.7,0,0,190.7,0,425.2s190.7,425.2,425.2,425.2s425.2-190.7,425.2-425.2S659.7,0,425.2,0z
			 M594.2,440.1l-248,159.4c-2.9,1.9-6.3,2.8-9.6,2.8c-2.9,0-5.8-0.7-8.5-2.2c-5.7-3.1-9.2-9.1-9.2-15.6V265.7
			c0-6.5,3.5-12.4,9.2-15.6c5.6-3.1,12.6-2.9,18.1,0.7l248,159.4c5.1,3.3,8.1,8.9,8.1,14.9S599.3,436.8,594.2,440.1z"></path>
            </g>
        </g>
    </g>
    <g class="SVG-layer" id="controlRepeat">
        <g>
            <g>
                <g>
                    <polygon class="class_controlRepeat_n0" points="658.2,624 194.1,624 194.1,488.2 8.5,669.3 194.1,850.4 194.1,714.6 751,714.6 751,442.9 
				658.2,442.9 			"></polygon>
                    <polygon class="class_controlRepeat_n0" points="194.1,201.3 658.2,201.3 658.2,322.1 843.9,161 658.2,0 658.2,120.8 101.3,120.8 101.3,362.4 
				194.1,362.4 			"></polygon>
                </g>
            </g>
        </g>
    </g>
    <g class="SVG-layer" id="controlShuffle">
        <g>
            <g>
                <g>
                    <polygon class="class_controlShuffle_n0" points="576.3,501 501,576.3 667.5,742.8 558.7,851.4 851.4,851.4 851.4,558.7 742.6,667.5 			"></polygon>
                    <rect x="122" y="-19.3" transform="matrix(0.7071 -0.7071 0.7071 0.7071 -72.5674 175.1966)" class="class_controlShuffle_n0" width="106.5" height="389"></rect>
                    <polygon class="class_controlShuffle_n0" points="558.7,0 667.5,108.8 0,776.1 75.3,851.4 742.8,183.8 851.4,292.7 851.4,0 			"></polygon>
                </g>
            </g>
        </g>
    </g>
</svg>