<?xml version="1.0" encoding="utf-8"?>
<svg
    xmlns:dc="http://purl.org/dc/elements/1.1/"
    xmlns:cc="http://creativecommons.org/ns#"
    xmlns:rdf="http://www.w3.org/1999/02/22-rdf-syntax-ns#"
    xmlns:svg="http://www.w3.org/2000/svg"
    xmlns="http://www.w3.org/2000/svg"
    xmlns:xlink="http://www.w3.org/1999/xlink"
    xmlns:sodipodi="http://sodipodi.sourceforge.net/DTD/sodipodi-0.dtd"
    xmlns:inkscape="http://www.inkscape.org/namespaces/inkscape" 
    viewBox="0 0 24 24"  
    style="enable-background:new 0 0 24 24;"
    id="SVGlayered" 
    inkscape:version="0.92.3 (2405546, 2018-03-11)"
    xml:space="preserve"
    width="30px"    height="30px">
    <style type="text/css">
    
    .SVG-layer { display: none }
    .SVG-layer:target { display: inline }
</style>
    <g class="SVG-layer" id="iconFriends">
        <g fill="none" fill-rule="evenodd">
            <path fill="#F6F4EF" fill-rule="nonzero" d="M0.5,0 L0.5,1.5 C0.5,5.65 2.71,9.28 6,11.3 L6,16 L21,16 L21,14 C21,11.34 15.67,10 13,10 C13,10 12.83,10 12.75,10 C8,10 4,6 4,1.5 L4,0 L0.5,0 Z M13,0 C10.790861,0 9,1.790861 9,4 C9,6.209139 10.790861,8 13,8 C15.209139,8 17,6.209139 17,4 C17,1.790861 15.209139,0 13,0 Z" transform="translate(2 4)"></path>
            <path d="M0,0 L24,0 L24,24 L0,24 L0,0 Z M0,0 L24,0 L24,24 L0,24 L0,0 Z M0,0 L24,0 L24,24 L0,24 L0,0 Z"></path>
        </g>
    </g>
    <g class="SVG-layer" id="iconLivestream">
        <path fill="#F6F4EF" fill-rule="evenodd" clip-rule="evenodd" d="M16.781 2.27293L14.081 5.7126H9.919L7.219 2.27293L8.781 1L12 5.10008L15.219 1L16.781 2.27293ZM4 6.73175H20C21.1 6.73175 22 7.649 22 8.77007V18.9617C22 20.0828 21.1 21 20 21H4C2.9 21 2 20.0828 2 18.9617V8.77007C2 7.649 2.9 6.73175 4 6.73175ZM4 18.9617H16V8.77007H4V18.9617ZM18 16.4138C18 16.9764 18.448 17.4329 19 17.4329C19.552 17.4329 20 16.9764 20 16.4138C20 15.8512 19.552 15.3946 19 15.3946C18.448 15.3946 18 15.8512 18 16.4138ZM18 11.318C18 11.8806 18.448 12.3371 19 12.3371C19.552 12.3371 20 11.8806 20 11.318C20 10.7554 19.552 10.2988 19 10.2988C18.448 10.2988 18 10.7554 18 11.318Z"></path>
    </g>
    <g class="SVG-layer" id="iconLibrary">
        <g fill="none" fill-rule="evenodd">
            <path fill="#F6F4EF" d="M5.79335761,5 L18.2066424,5 C19.7805584,5 21.0868816,6.21634264 21.1990185,7.78625885 L21.8575059,17.0050826 C21.9307825,18.0309548 21.1585512,18.9219909 20.132679,18.9952675 C20.088523,18.9984215 20.0442685,19 20,19 C18.8245863,19 17.8000084,18.2000338 17.5149287,17.059715 L17,15 L7,15 L6.48507125,17.059715 C6.19999155,18.2000338 5.1754137,19 4,19 C2.97151413,19 2.13776159,18.1662475 2.13776159,17.1377616 C2.13776159,17.0934931 2.1393401,17.0492386 2.1424941,17.0050826 L2.80098151,7.78625885 C2.91311838,6.21634264 4.21944161,5 5.79335761,5 Z M14.5,10 C15.3284271,10 16,9.32842712 16,8.5 C16,7.67157288 15.3284271,7 14.5,7 C13.6715729,7 13,7.67157288 13,8.5 C13,9.32842712 13.6715729,10 14.5,10 Z M18.5,13 C19.3284271,13 20,12.3284271 20,11.5 C20,10.6715729 19.3284271,10 18.5,10 C17.6715729,10 17,10.6715729 17,11.5 C17,12.3284271 17.6715729,13 18.5,13 Z M6,9 L4,9 L4,11 L6,11 L6,13 L8,13 L8,11 L10,11 L10,9 L8,9 L8,7 L6,7 L6,9 Z"></path>
            <rect width="24" height="24"></rect>
        </g>
    </g>
    <g class="SVG-layer" id="iconMusic">
        <path fill="#F6F4EF" d="M19.396 3.29898C19.016 3.01598 18.524 2.93098 18.07 3.06498L8.07 6.06498C7.435 6.25498 7 6.83998 7 7.50298V15.054C6.835 15.03 6.671 15.003 6.5 15.003C4.566 15.003 3 16.571 3 18.503C3 20.434 4.566 22.003 6.5 22.003C8.434 22.003 10 20.434 10 18.503V8.61798L17 6.51798V13.054C16.835 13.03 16.671 13.003 16.5 13.003C14.566 13.003 13 14.571 13 16.503C13 18.434 14.566 20.003 16.5 20.003C18.434 20.003 20 18.434 20 16.503V4.50298C20 4.02698 19.775 3.58198 19.396 3.29898Z"></path>
    </g>
    <g class="SVG-layer" id="iconNavigation">
        <path fill="#F6F4EF" d="M12 10.9C11.39 10.9 10.9 11.39 10.9 12C10.9 12.61 11.39 13.1 12 13.1C12.61 13.1 13.1 12.61 13.1 12C13.1 11.39 12.61 10.9 12 10.9ZM12 2C6.48 2 2 6.48 2 12C2 17.52 6.48 22 12 22C17.52 22 22 17.52 22 12C22 6.48 17.52 2 12 2ZM14.19 14.19L6 18L9.81 9.81L18 6L14.19 14.19Z"></path>
    </g>
    <g class="SVG-layer" id="iconSettings">
        <path fill="#F6F4EF" fill-rule="evenodd" clip-rule="evenodd" d="M19.738 10H22V14H19.739C19.498 14.931 19.1 15.798 18.565 16.564L20 18L18 20L16.565 18.564C15.797 19.099 14.932 19.498 14 19.738V22H10V19.738C9.069 19.498 8.203 19.099 7.436 18.564L6 20L4 18L5.436 16.564C4.901 15.799 4.502 14.932 4.262 14H2V10H4.262C4.502 9.068 4.9 8.202 5.436 7.436L4 6L6 4L7.436 5.436C8.202 4.9 9.068 4.502 10 4.262V2H14V4.261C14.932 4.502 15.797 4.9 16.565 5.435L18 3.999L20 5.999L18.564 7.436C19.099 8.202 19.498 9.069 19.738 10ZM12 16C14.2091 16 16 14.2091 16 12C16 9.79086 14.2091 8 12 8C9.79086 8 8 9.79086 8 12C8 14.2091 9.79086 16 12 16Z"></path>
    </g>
</svg>