<?xml version="1.0" encoding="utf-8"?>
<svg
    xmlns:dc="http://purl.org/dc/elements/1.1/"
    xmlns:cc="http://creativecommons.org/ns#"
    xmlns:rdf="http://www.w3.org/1999/02/22-rdf-syntax-ns#"
    xmlns:svg="http://www.w3.org/2000/svg"
    xmlns="http://www.w3.org/2000/svg"
    xmlns:xlink="http://www.w3.org/1999/xlink"
    xmlns:sodipodi="http://sodipodi.sourceforge.net/DTD/sodipodi-0.dtd"
    xmlns:inkscape="http://www.inkscape.org/namespaces/inkscape" 
    viewBox="0 0 480 480"  
    style="enable-background:new 0 0 480 480;"
    id="SVGlayered" 
    inkscape:version="0.92.3 (2405546, 2018-03-11)"
    xml:space="preserve"
        >
    <style type="text/css">
    
    .SVG-layer { display: none }
    .SVG-layer:target { display: inline }
</style>
    <g class="SVG-layer" id="volumeLow">
        <path d="M294.953,1.587c-5.568-2.656-12.128-1.952-16.928,1.92L122.377,128.019H48.009c-17.632,0-32,14.368-32,32v128
	c0,17.664,14.368,32,32,32h74.368l155.616,124.512c2.912,2.304,6.464,3.488,10.016,3.488c2.368,0,4.736-0.544,6.944-1.6
	c5.536-2.656,9.056-8.256,9.056-14.4v-416C304.009,9.875,300.489,4.275,294.953,1.587z"></path>
        <path d="M385.001,110.867c-6.304-6.208-16.416-6.112-22.624,0.128c-6.208,6.304-6.144,16.416,0.128,22.656
	c24.192,23.872,37.504,55.968,37.504,90.368s-13.312,66.496-37.504,90.368c-6.272,6.176-6.336,16.32-0.128,22.624
	c3.136,3.168,7.264,4.736,11.36,4.736c4.064,0,8.128-1.536,11.264-4.64c30.336-29.856,47.008-70.048,47.008-113.088
	S415.337,140.787,385.001,110.867z"></path>
    </g>
    <g class="SVG-layer" id="volumeMax">
        <path d="M278.944,17.577c-5.568-2.656-12.128-1.952-16.928,1.92L106.368,144.009H32c-17.632,0-32,14.368-32,32v128
	c0,17.664,14.368,32,32,32h74.368l155.616,124.512c2.912,2.304,6.464,3.488,10.016,3.488c2.368,0,4.736-0.544,6.944-1.6
	c5.536-2.656,9.056-8.256,9.056-14.4v-416C288,25.865,284.48,20.265,278.944,17.577z"></path>
        <path d="M368.992,126.857c-6.304-6.208-16.416-6.112-22.624,0.128c-6.208,6.304-6.144,16.416,0.128,22.656
	C370.688,173.513,384,205.609,384,240.009s-13.312,66.496-37.504,90.368c-6.272,6.176-6.336,16.32-0.128,22.624
	c3.136,3.168,7.264,4.736,11.36,4.736c4.064,0,8.128-1.536,11.264-4.64C399.328,323.241,416,283.049,416,240.009
	S399.328,156.777,368.992,126.857z"></path>
        <path d="M414.144,81.769c-6.304-6.24-16.416-6.176-22.656,0.096c-6.208,6.272-6.144,16.416,0.096,22.624
	C427.968,140.553,448,188.681,448,240.009s-20.032,99.424-56.416,135.488c-6.24,6.24-6.304,16.384-0.096,22.656
	c3.168,3.136,7.264,4.704,11.36,4.704c4.064,0,8.16-1.536,11.296-4.64C456.64,356.137,480,299.945,480,240.009
	S456.64,123.881,414.144,81.769z"></path>
    </g>
    <g class="SVG-layer" id="volumeMute">
        <path d="M352.021,16.075c0-6.08-3.52-11.84-8.96-14.4c-5.76-2.88-12.16-1.92-16.96,1.92l-141.76,112.96l167.68,167.68V16.075z"></path>
        <path d="M443.349,420.747l-416-416c-6.24-6.24-16.384-6.24-22.624,0s-6.24,16.384,0,22.624l100.672,100.704h-9.376
	c-9.92,0-18.56,4.48-24.32,11.52c-4.8,5.44-7.68,12.8-7.68,20.48v128c0,17.6,14.4,32,32,32h74.24l155.84,124.48
	c2.88,2.24,6.4,3.52,9.92,3.52c2.24,0,4.8-0.64,7.04-1.6c5.44-2.56,8.96-8.32,8.96-14.4v-57.376l68.672,68.672
	c3.136,3.136,7.232,4.704,11.328,4.704s8.192-1.568,11.328-4.672C449.589,437.131,449.589,427.019,443.349,420.747z"></path>
    </g>
</svg>